<?xml version="1.0" encoding="UTF-8" standalone="no"?>
<svg id="svg2" xmlns:rdf="http://www.w3.org/1999/02/22-rdf-syntax-ns#" xmlns="http://www.w3.org/2000/svg" height="678.43" width="453.76" version="1.1" xmlns:cc="http://creativecommons.org/ns#" xmlns:dc="http://purl.org/dc/elements/1.1/" viewBox="0 0 453.75827 678.4295">
<g id="g4156">
<rect id="rect4" fill-opacity="0" height="500" width="500" y="92.359" x="-25.169"/>
<g fill="#cd8e64">
<path id="path4154" d="m305.47 0.0057002c-1.1401 0.03155-2.328 0.19425-3.5723 0.50977l-199.22 2.2617c-5.389 6.8638-18.337 17.111-18.997 21.854l248.09-7.086c-8.77-5.837-15.28-17.844-26.3-17.539z"/>
<path id="path4152" d="m337.76 26.525-18.838 0.58984c5.5836 33.261 14.59 66.085 17.959 99.627l7.1523 116.98c12.919-0.22547 18.53-5.948 14.682-18.787-2.5408-42.058-3.15-84.351-6.8926-126.26l-14.062-72.148z"/>
<path id="path4150" d="m96.648 33.381-19.834 0.582c-3.803 74.517-5.617 149.12-4.311 223.74 10.331-1.45 24.606 0.21 18.217-14.38-3.189-37.37-7.426-74.42-10.642-111.57l16.57-98.369z"/>
<path id="path4148" d="m128.17 34.592-7.2774 7.502c56.593 5.6056 113.25 12.566 169.8 17.326 16.166 0.29632-5.7836-11.768-12.533-10.846l-149.99-13.982z"/>
<path id="path4146" d="m120.19 51.099c-9.2997-0.51507-2.255 16.211-4.0098 23.654l2.3867 85.061c12.364 8.375 8.8757-11.629 8.5508-18.758l-3.4902-89.213c-1.3397-0.45165-2.4755-0.69086-3.4375-0.74414z"/>
<path id="path4144" d="m303.78 65.515-9.416 1.8848 15.055 76.391c14.939 11.317 8.3454-4.9476 6.6445-14.945l-12.28-63.325z"/>
</g>
<g fill="#65381b">
<path id="path4142" d="m297.56 148.98c-2.3275 0.15136-4.592 1.1562-6.7578 3.5l-27.041 17.32c-8.4036 0.37519-17.235-8.5191-25.793-11.488-9.3164-4.7771-18.836-13.297-27.305-2.543-7.9041 2.7734-15.431 15.423-23.584 11.705l-29.609-16.613c-11.679 7.6517-23.355 15.307-35.035 22.957l-28.312-19.141c-9.98 5.6773-0.56081 19.388-1.5371 28.793 3.0652 5.9109-1.4317 30.088 8.541 19.32 7.8596-2.9295 17.12-20.475 23.686-9.9062 7.3063 5.0567 13.518 24.207 22.15 12.18 8.0485-6.6009 16.093-13.208 24.145-19.805 13.5 8.5544 27 17.11 40.5 25.664 10.396-8.37 20.79-16.743 31.188-25.111 7.622 6.6818 15.241 13.367 22.861 20.051 9.0789-7.2077 18.156-14.417 27.236-21.623 10.535 9.0625 21.065 18.129 31.598 27.193 11.876-5.4724 4.9252-19.29 6.1758-29.473-0.38977-10.438 2.3842-23-11.426-24.428-7.1473-1.7812-14.697-9.0068-21.68-8.5527z"/>
<path id="path4140" d="m372.79 151.58-8.3301 3.5332 2.1562 35.592 28.854 18.391c15.058-9.8778 36.723-17.548 38.609-38.094 2.2066-5.1866 21.677-13.506 11.566-17.037-11.866 2.2553-23.812 8.853-35.627 8.4746-12.389-3.1748-24.927-9.6636-37.229-10.859z"/>
<path id="path4138" d="m50.224 157.41c-0.09695-0.009-0.19161-0.007-0.28516 0.004-1.9244 0.22341-3.2065 4.5504-7.1348 10.842-8.2872 4.156-20.905 2.5134-22.01 15.516-0.67994 11.963-18.192 7.8292-4.7305 17.82 5.5242 13.953 14.868 5.2095 23.67-0.32617 7.7751-5.2721 15.552-11.486 23.318-2.5059-1.23-11.386 4.5646-25.144-5.9121-33.408-3.5817-5.4391-5.4618-7.8095-6.916-7.9414z"/>
</g>
<path id="path4136" fill="#854b25" d="m452.98 171.96-0.55859 0.19141c-13.721-0.67903-8.8025 13.116-14.521 20.08-11.353 5.1914-9.0257 16.262-8.4512 26.576 2.9498 101.24 6.8942 202.54 3.6797 303.82 0.42162 47.415-0.56155 94.814-1.5684 142.21 6.123-7.2599 16.296-11.225 19.246-21.41 3.3893-17.822 1.061-37.195 2.1699-55.621 1.8289-138.61-0.12352-277.24 0.004-415.85z"/>
<path id="path6" fill="#854b25" d="m170.57 199.18c-9.9659 8.8726-19.932 17.745-29.898 26.617-7.0012-7.6852-14.012-15.36-21.018-23.041-6.3572 7.0493-20.495 10.734-21.775 19.979 1.4771 13.338 2.9565 26.675 4.4316 40.014-12.885 1.8347-25.771 3.6648-38.656 5.5-0.38894-18.644-0.77979-37.289-1.1699-55.934-8.5914-10.678-17.593 0.0551-26.471 4.459-8.6657 6.8521-16.875 10.745-22.609-1.3457-6.4331-7.6222-13.924-18.02-11.674-2.0078-2.0265 54.461-2.8547 108.79 0.83594 163.13 3.0563 61.996 4.6024 124.09 1.3203 186.12-1.1784 36.292-2.4246 72.58-3.6816 108.87 72.223-3.8597 144.62-4.3078 216.83 0.0234 68.278 2.5966 136.58 4.7702 204.87 6.8633 0.71325-116.88 4.266-233.8-0.14649-350.66-0.82303-39.517-2.7316-78.947-3.252-118.47-8.1644 3.1747-15.917 12.256-24.338 11.748-9.3245-4.3771-17.958-10.067-26.736-15.422 0.77804 13.836 1.5507 27.672 2.332 41.508-11.469 2.6327-22.936 5.2717-34.404 7.9082-1.0332-12.517-2.0795-25.032-3.1172-37.549-8.291 11.01-15.669 2.006-23.146-4.7676-8.0274-4.0398-16.322-21.407-24.021-9.1992l-17.242 15.627c-7.7302 2.3539-15.257-12.8-22.906-17.445-7.5744-5.6935-15.583 11.198-23.338 14.854-6.9155 11.8-15.55 4.5647-24.055-1.207l-26.961-16.176z"/>
</g>
</svg>
